# xmcd CD database file
#
# Track frame offsets:
#	150
#	19820
#	37950
#	54570
#	73750
#	96742
#	114195
#	129590
#	147725
#	167322
#
# Disc length: 2484 seconds
#
# Revision: 0
# Processed by: cddbd v1.5.1PL2 Copyright (c) Steve Scherf et al.
# Submitted via: CDex 1.51
#
DISCID=8c09b20a
DTITLE=Bruce Eskovitz - Bruce Eskovitz
DYEAR=1990
DGENRE=Jazz
TTITLE0=Now's The Time
TTITLE1=When We Were Kids
TTITLE2=Rachel
TTITLE3=Miles Away
TTITLE4=Ballad For Gabe
TTITLE5=King Of Pain
TTITLE6=Breakthrough
TTITLE7=Child's Play
TTITLE8=Passion
TTITLE9=My One Love
EXTD=YEAR: 1990
EXTT0=
EXTT1=
EXTT2=
EXTT3=
EXTT4=
EXTT5=
EXTT6=
EXTT7=
EXTT8=
EXTT9=
PLAYORDER=
